<?xml version="1.0" standalone="no"?>
<!DOCTYPE svg PUBLIC "-//W3C//DTD SVG 20010904//EN"
 "http://www.w3.org/TR/2001/REC-SVG-20010904/DTD/svg10.dtd">
<svg version="1.0" xmlns="http://www.w3.org/2000/svg"
 width="70.000000pt" height="70.000000pt" viewBox="0 0 70.000000 70.000000"
 preserveAspectRatio="xMidYMid meet">
<metadata>
Created by potrace 1.11, written by Peter Selinger 2001-2013
</metadata>
<g transform="translate(0.000000,70.000000) scale(0.100000,-0.100000)"
fill="#000000" stroke="none">
<path d="M0 350 l0 -350 290 0 c187 0 290 4 290 10 0 6 6 10 13 10 16 0 77 62
77 78 0 7 5 12 11 12 5 0 8 4 4 9 -3 5 -1 12 5 16 14 9 13 118 -2 133 -7 7 -9
12 -5 12 4 0 -2 16 -14 36 -15 28 -17 39 -8 50 6 8 8 14 3 14 -5 0 -1 5 9 11
9 6 15 14 12 19 -3 5 -1 11 5 15 13 8 13 135 0 135 -6 0 -9 3 -8 8 5 25 -54
102 -79 102 -7 0 -13 5 -13 11 0 6 -7 9 -15 5 -8 -3 -15 -1 -15 4 0 6 -106 10
-280 10 l-280 0 0 -350z m329 226 c8 -5 -188 -206 -201 -206 -4 0 -7 47 -7
104 l-1 104 100 1 c56 1 104 -1 109 -3z m210 -25 c37 -36 36 -81 -5 -116 -25
-22 -38 -25 -104 -25 l-74 0 42 43 c23 23 42 45 42 49 0 3 -13 20 -30 38 -16
18 -30 34 -30 36 0 2 29 3 66 3 57 -1 69 -4 93 -28z m-299 -324 l105 -107
-110 2 -110 3 -3 84 c-3 71 4 144 11 129 1 -2 49 -52 107 -111z m275 49 c34
-18 55 -47 50 -72 -2 -10 -4 -24 -4 -31 -2 -31 -41 -50 -103 -51 -34 0 -66 2
-71 5 -4 3 5 17 22 32 17 15 31 32 31 36 0 14 -63 75 -77 75 -7 0 -13 5 -13
10 0 15 134 12 165 -4z"/>
</g>
</svg>
